<?xml version="1.0" encoding="UTF-8"?>
<svg width="15px" height="18px" viewBox="0 0 15 18" version="1.1" xmlns="http://www.w3.org/2000/svg" xmlns:xlink="http://www.w3.org/1999/xlink">
    <title>编组 11</title>
    <g id="NFT" stroke="none" stroke-width="1" fill="none" fill-rule="evenodd" opacity="0.5">
        <g id="画板" transform="translate(-91.000000, -85.000000)" fill="#FFFFFF" fill-rule="nonzero">
            <g id="编组-11" transform="translate(91.000000, 85.000000)">
                <path d="M7.12846518,0.101937193 C7.35837173,-0.0339790643 7.64162827,-0.0339790643 7.87153482,0.101937193 L7.87153482,0.101937193 L14.6284652,4.09650241 C14.8583717,4.23241867 15,4.48360227 15,4.75543478 L15,4.75543478 L15,12.7445652 C15,13.0163977 14.8583717,13.2675813 14.6284652,13.4034976 L14.6284652,13.4034976 L7.87153482,17.3980628 C7.64162827,17.5339791 7.35837173,17.5339791 7.12846518,17.3980628 L7.12846518,17.3980628 L0.371534816,13.4034976 C0.141628272,13.2675813 0,13.0163977 0,12.7445652 L0,12.7445652 L0,4.75543478 C0,4.48360227 0.141628272,4.23241867 0.371534816,4.09650241 L0.371534816,4.09650241 Z M7.5,1.63967391 L1.4855944,5.19445652 L1.4855944,12.3047826 L7.5,15.8595652 L13.5136625,12.3047826 L13.5136625,5.19445652 L10.976,3.694 L4.96708634,7.64938508 L4.96779657,9.7016183 L3.48165731,8.84850896 L3.48165731,6.83069561 L9.53,2.839 L7.5,1.63967391 Z" id="形状结合"></path>
            </g>
        </g>
    </g>
</svg>