<?xml version="1.0" encoding="UTF-8"?>
<svg width="24px" height="24px" viewBox="0 0 24 24" version="1.1" xmlns="http://www.w3.org/2000/svg" xmlns:xlink="http://www.w3.org/1999/xlink">
    <g id="页面-1" stroke="none" stroke-width="1" fill="none" fill-rule="evenodd">
        <g id="币种选择" transform="translate(-631.000000, -335.000000)">
            <g id="BTC" transform="translate(631.000000, 335.000000)">
                <path d="M12.000014,0 L12.0000134,0 C18.627443,0 24.0000274,5.37258438 24.0000274,12.000014 C24.0000274,18.6274436 18.627443,24.0000279 12.0000134,24.0000279 L12.0000129,24.0000279 C5.37258333,24.0000279 -1.0490731e-06,18.6274436 -1.0490731e-06,12.000014 C-1.0490731e-06,5.37258438 5.37258333,0 12.0000129,0 L12.000014,0 Z" id="形状" fill="#FFB11A" fill-rule="nonzero"></path>
                <path d="M10.455371,3.6 C10.6030635,3.6 10.7261404,3.71844451 10.7261404,3.86294531 L10.7261404,3.86294531 L10.7261404,6.4000006 L12.1833721,6.4000006 L12.1833721,3.86057552 C12.1833721,3.71844331 12.3039877,3.6 12.4541415,3.6 L12.4541415,3.6 L13.3649105,3.6 C13.5126031,3.6 13.63568,3.71844331 13.63568,3.86294411 L13.63568,3.86294411 L13.63568,6.3999994 L14.1353739,6.3999994 C15.870765,6.3999994 17.2738435,7.86868428 17.2738435,9.68086878 C17.2738435,10.4341681 17.0301528,11.1282466 16.6215371,11.6825615 C17.4535373,12.2629351 18,13.2483838 18,14.36412 C18,16.1526216 16.5944621,17.6 14.8639991,17.6 L14.8639991,17.6 L13.63323,17.6 L13.63323,20.1394245 C13.63323,20.2815567 13.5101528,20.4 13.3624605,20.4 L13.3624605,20.4 L12.4516915,20.4 C12.303999,20.4 12.1809221,20.2815564 12.1809221,20.1394245 L12.1809221,20.1394245 L12.1809221,17.6 L10.7236904,17.6 L10.7236904,20.1394245 C10.7236904,20.2815567 10.6030748,20.4 10.452921,20.4 L10.452921,20.4 L9.54461445,20.4 C9.3919991,20.4 9.26892219,20.2839256 9.26892219,20.1370559 L9.26892219,20.1370559 L9.26892219,17.6023674 L6.41353699,17.6023674 C6.39797739,17.6022087 6.38246086,17.6007596 6.36715979,17.5980361 C6.22011225,17.5718616 6.12295472,17.4359254 6.15015254,17.2944139 L6.15015254,17.2944139 L6.3224604,16.4037208 C6.34452541,16.2870221 6.44570388,16.1993898 6.56861423,16.1905228 L6.56861423,16.1905228 L6.72382345,16.1700663 C7.4729225,16.0392138 7.81907708,15.4862304 7.81907708,14.799999 L7.81907708,14.799999 L7.81907708,9.37293367 C7.81907708,8.56278043 7.26769255,7.90186696 6.24369226,7.80948115 C6.10338472,7.797637 6,7.68156258 6,7.54653704 L6,7.54653704 L6,6.66058051 L6,6.66058051 L6.00715121,6.60083291 C6.03521428,6.48571699 6.14259062,6.40000499 6.27076914,6.40000498 L6.27076914,6.40000498 L9.27384814,6.40000498 L9.27384814,3.8605799 C9.27384814,3.71844769 9.39692536,3.6 9.54461759,3.6 L9.54461759,3.6 Z M13.6799866,12.6964437 L10.7261389,12.6964437 L10.7261389,15.5888295 L13.6799866,15.5888295 C13.7204923,15.5904088 13.7610476,15.5904088 13.8015532,15.5888295 C14.6301504,15.5565245 15.2746483,14.8839125 15.2410787,14.0865104 C15.2075099,13.2891083 14.5085847,12.6688744 13.6799876,12.7011803 L13.6799876,12.7011803 L13.6799866,12.6964437 Z M12.9538341,8.49879543 L10.7261397,8.49879543 L10.7261397,11.3888145 L12.9538341,11.3888145 C13.7831094,11.3888145 14.4553721,10.7418641 14.4553721,9.94380645 C14.4553721,9.14575177 13.7831125,8.49879543 12.9538341,8.49879543 L12.9538341,8.49879543 Z" id="形状结合" fill="#FFFFFF" transform="translate(12.000000, 12.000000) rotate(15.000000) translate(-12.000000, -12.000000) "></path>
            </g>
        </g>
    </g>
</svg>