<?xml version="1.0" encoding="UTF-8"?>
<svg width="20px" height="20px" viewBox="0 0 20 20" version="1.1" xmlns="http://www.w3.org/2000/svg" xmlns:xlink="http://www.w3.org/1999/xlink">
    <g id="页面-7" stroke="none" stroke-width="1" fill="none" fill-rule="evenodd">
        <g id="市场调整1" transform="translate(-527.000000, -259.000000)" fill="#FFFFFF" fill-rule="nonzero">
            <g id="编组-11" transform="translate(370.000000, 239.000000)">
                <g id="编组-19" transform="translate(150.000000, 16.000000)">
                    <g id="秒表" transform="translate(7.000000, 4.000000)">
                        <path d="M11.4908975,2 L11.4909172,3.35048864 C14.6654514,4.21828867 17,7.10913896 17,10.5369393 C17,14.6535498 13.6345376,18 9.5,18 C5.36546243,18 2,14.6535498 2,10.5423692 C2,7.11456882 4.33452893,4.2183043 7.50908284,3.35050818 L7.50908284,3.35050818 L7.50908284,2 L11.4908975,2 Z M9.49998036,4.43526798 C6.1181751,4.43526798 3.36362386,7.17423861 3.36362386,10.5369588 C3.36362386,13.8996595 6.11815546,16.6386497 9.49998036,16.6386497 C12.8817856,16.6386497 15.6363369,13.8996791 15.6363369,10.5369588 C15.6363369,7.17425815 12.8818053,4.43526798 9.49998036,4.43526798 Z M9.61453922,5.57424819 L10.1981744,10.4501857 C10.2472638,10.8461177 9.93635531,11.1932358 9.53817385,11.1932358 C9.12908276,11.1932358 8.81817334,10.8298457 8.8781733,10.4284897 L8.8781733,10.4284897 L9.61453725,5.63390919 L9.61453922,5.57424819 Z" id="形状结合"></path>
                    </g>
                </g>
            </g>
        </g>
    </g>
</svg>