<?xml version="1.0" encoding="UTF-8"?>
<svg width="56px" height="59px" viewBox="0 0 56 59" version="1.1" xmlns="http://www.w3.org/2000/svg" xmlns:xlink="http://www.w3.org/1999/xlink">
    <title>编组 3</title>
    <g id="兑换" stroke="none" stroke-width="1" fill="none" fill-rule="evenodd">
        <g id="画板" transform="translate(-710.000000, -280.000000)" fill="#E49901">
            <g id="编组-3" transform="translate(710.000000, 280.000000)">
                <g id="编组-2" transform="translate(0.000000, -0.003863)">
                    <path d="M52.3670233,1.01699157 L52.4068695,1.15602002 L52.5249624,1.68459366 C53.1181248,4.49558111 53.1222805,7.17797157 52.5374295,9.73176505 C52.0377212,11.913777 51.3851259,13.4699217 50.6322668,14.5150905 C54.0077188,19.1396572 56,24.8390988 56,31.0038626 C56,46.4678356 43.463973,59.0038626 28,59.0038626 C12.536027,59.0038626 0,46.4678356 0,31.0038626 C0,24.8390988 1.99228119,19.1396572 5.36811635,14.5142651 C4.61487412,13.4699217 3.96227883,11.913777 3.46257048,9.73176505 C2.87771948,7.17797157 2.8818752,4.49558111 3.47503764,1.68459366 L3.59313048,1.15602002 C3.78330807,0.349701305 4.59112795,-0.149779762 5.39744667,0.0403978355 C5.43480508,0.0492091568 5.47181153,0.0594511498 5.50838429,0.0711011978 C7.7346926,0.78027924 9.59342484,1.62321121 11.084581,2.5998971 C12.3318804,3.4168603 13.8363628,4.51457556 15.5980284,5.89304289 C19.3363569,4.0434657 23.5467723,3.00386261 28,3.00386261 C32.4532277,3.00386261 36.6636431,4.0434657 40.4017909,5.89321656 C42.1636372,4.51457556 43.6681196,3.4168603 44.915419,2.5998971 C46.4065752,1.62321121 48.2653074,0.78027924 50.4916157,0.0711011978 C50.5281885,0.0594511498 50.5651949,0.0492091568 50.6025533,0.0403978355 C51.3614415,-0.138592844 52.1216595,0.293325189 52.3670233,1.01699157 Z M28,9.00386261 C15.8497355,9.00386261 6,18.8535981 6,31.0038626 C6,43.1541271 15.8497355,53.0038626 28,53.0038626 C40.1502645,53.0038626 50,43.1541271 50,31.0038626 C50,18.8535981 40.1502645,9.00386261 28,9.00386261 Z M40.1213203,22.8825423 C41.2460303,24.0072522 41.2910187,25.8028152 40.2562855,26.9811934 L40.1213203,27.125183 L27.6213203,39.625183 C26.4966104,40.7498929 24.7010475,40.7948813 23.5226693,39.7601482 L23.3786797,39.625183 L15.8786797,32.125183 C14.7071068,30.9536101 14.7071068,29.0541151 15.8786797,27.8825423 C17.0033896,26.7578323 18.7989525,26.7128439 19.9773307,27.7475771 L20.1213203,27.8825423 L25.5,33.261 L35.8786797,22.8825423 C37.0502525,21.7109694 38.9497475,21.7109694 40.1213203,22.8825423 Z" id="形状结合"></path>
                </g>
            </g>
        </g>
    </g>
</svg>