<?xml version="1.0" encoding="UTF-8"?>
<svg width="64px" height="56px" viewBox="0 0 64 56" version="1.1" xmlns="http://www.w3.org/2000/svg" xmlns:xlink="http://www.w3.org/1999/xlink">
    <title>编组 6</title>
    <g id="兑换" stroke="none" stroke-width="1" fill="none" fill-rule="evenodd">
        <g id="画板" transform="translate(-838.000000, -283.000000)" fill="#F36346">
            <g id="编组-6" transform="translate(838.000000, 283.000000)">
                <g id="编组-2" transform="translate(0.589174, -0.000000)">
                    <path d="M31.4108264,0 C38.0066468,0 44.0697968,2.28063297 48.8547212,6.09634359 C52.009528,6.43361914 54.5290627,6.79880904 56.4141654,7.19179581 C58.1591932,7.55558122 60.0695583,8.27386047 62.1452606,9.34663358 C62.1793593,9.3642566 62.212769,9.38318192 62.2454159,9.40336777 C62.9085964,9.81341724 63.1407395,10.6563847 62.8025285,11.3415925 L62.7323961,11.468076 L62.4421423,11.9253382 C60.998848,14.1406574 59.2798042,15.9261879 57.2850109,17.2819298 C58.6549179,20.5819376 59.4108264,24.2026929 59.4108264,28 C59.4108264,43.463973 46.8747994,56 31.4108264,56 C15.9468534,56 3.41082636,43.463973 3.41082636,28 C3.41082636,24.1750649 4.1777743,20.5292602 5.56627647,17.2079794 C3.61638721,15.8630247 1.93246564,14.1015569 0.51464551,11.9253382 L0.224391753,11.468076 C-0.211285812,10.7634467 0.00674265011,9.83904533 0.711371952,9.40336777 C0.744018885,9.38318192 0.777428577,9.3642566 0.811527252,9.34663358 C2.88722956,8.27386047 4.79759464,7.55558122 6.54262248,7.19179581 C8.39644712,6.80532957 10.8638251,6.44574541 13.9447565,6.11304335 C18.7341409,2.28730172 24.8053696,0 31.4108264,0 Z M31.4108264,6 C19.2605619,6 9.41082636,15.8497355 9.41082636,28 C9.41082636,40.1502645 19.2605619,50 31.4108264,50 C43.5610909,50 53.4108264,40.1502645 53.4108264,28 C53.4108264,15.8497355 43.5610909,6 31.4108264,6 Z M26.8881571,18.7437145 L27.0321467,18.8786797 L31.661,23.507 L36.289506,18.8786797 L36.4334956,18.7437145 C37.6118738,17.7089813 39.4074367,17.7539697 40.5321467,18.8786797 C41.7037196,20.0502526 41.7037196,21.9497475 40.5321467,23.1213204 L40.5321467,23.1213204 L35.904,27.75 L40.5321467,32.3786797 C41.7037196,33.5502526 41.7037196,35.4497475 40.5321467,36.6213204 C39.4074367,37.7460303 37.6118738,37.7910187 36.4334956,36.7562856 L36.289506,36.6213204 L31.661,31.993 L27.0321467,36.6213204 L26.8881571,36.7562856 C25.7097789,37.7910187 23.914216,37.7460303 22.789506,36.6213204 C21.6179331,35.4497475 21.6179331,33.5502526 22.789506,32.3786797 L22.789506,32.3786797 L27.418,27.75 L22.789506,23.1213204 C21.6179331,21.9497475 21.6179331,20.0502526 22.789506,18.8786797 C23.914216,17.7539697 25.7097789,17.7089813 26.8881571,18.7437145 Z" id="形状结合"></path>
                </g>
            </g>
        </g>
    </g>
</svg>