<?xml version="1.0" encoding="UTF-8"?>
<svg width="55px" height="67px" viewBox="0 0 55 67" version="1.1" xmlns="http://www.w3.org/2000/svg" xmlns:xlink="http://www.w3.org/1999/xlink">
    <title>编组 9</title>
    <g id="兑换" stroke="none" stroke-width="1" fill="none" fill-rule="evenodd">
        <g id="画板" transform="translate(-221.000000, -313.000000)">
            <g id="编组-9" transform="translate(221.000000, 313.000000)">
                <g id="编组-6">
                    <path d="M0,0 L48.3196475,0 L48.3196475,47.553003 L37.6595804,58 L0,58 L0,0 Z" id="矩形备份-5" fill="#535353" opacity="0.280389695"></path>
                    <path d="M5.31964748,6.1799469 L54.3196475,6.1799469 L54.3196475,54.2438469 L41.3033282,67 L5.31964748,67 L5.31964748,6.1799469 Z" id="矩形" fill="#535353"></path>
                    <polygon id="矩形" fill="#2F2F2F" opacity="0.288978213" points="13.3196475 19 28.3196475 19 28.3196475 21 13.3196475 21"></polygon>
                    <polygon id="矩形备份" fill="#2F2F2F" opacity="0.288978213" points="13.3196475 28 46.3196475 28 46.3196475 30 13.3196475 30"></polygon>
                    <polygon id="矩形备份-2" fill="#2F2F2F" opacity="0.288978213" points="13.3196475 34 46.3196475 34 46.3196475 36 13.3196475 36"></polygon>
                    <rect id="矩形备份-4" fill="#2F2F2F" opacity="0.288978213" x="13.3196475" y="40" width="14" height="2"></rect>
                    <polygon id="矩形" fill-opacity="0.103703425" fill="#FFFFFF" points="41.3270098 54.2438469 54.3196475 54.2438469 41.3270098 67"></polygon>
                </g>
            </g>
        </g>
    </g>
</svg>