<?xml version="1.0" encoding="UTF-8"?>
<svg width="28px" height="29px" viewBox="0 0 28 29" version="1.1" xmlns="http://www.w3.org/2000/svg" xmlns:xlink="http://www.w3.org/1999/xlink">
    <g id="兑换" stroke="none" stroke-width="1" fill="none" fill-rule="evenodd">
        <g id="设置" transform="translate(-1229.000000, -306.000000)">
            <g id="编组-3备份" transform="translate(842.000000, 270.000000)">
                <g id="关闭" transform="translate(387.000000, 36.250000)">
                    <g id="编组">
                        <path d="M8,0 L20,0 C24.418278,-8.11624501e-16 28,3.581722 28,8 L28,20 C28,24.418278 24.418278,28 20,28 L8,28 C3.581722,28 5.41083001e-16,24.418278 0,20 L0,8 C-5.41083001e-16,3.581722 3.581722,8.11624501e-16 8,0 Z" id="矩形" fill-opacity="0.374699519" fill="#FFFFFF"></path>
                        <line x1="9" y1="9" x2="19.5" y2="19.5" id="路径-9" stroke="#FFFFFF" stroke-width="2" stroke-linecap="round"></line>
                        <line x1="9" y1="9" x2="19.5" y2="19.5" id="路径-9备份" stroke="#FFFFFF" stroke-width="2" stroke-linecap="round" transform="translate(14.250000, 14.250000) scale(-1, 1) translate(-14.250000, -14.250000) "></line>
                    </g>
                </g>
            </g>
        </g>
    </g>
</svg>