<?xml version="1.0" encoding="UTF-8"?>
<svg width="24px" height="24px" viewBox="0 0 24 24" version="1.1" xmlns="http://www.w3.org/2000/svg" xmlns:xlink="http://www.w3.org/1999/xlink">
    <g id="qq秀" stroke="none" stroke-width="1" fill="none" fill-rule="evenodd">
        <g id="NFT详情4备份-5" transform="translate(-629.000000, -708.000000)" fill="#FFFFFF" fill-rule="nonzero">
            <g id="编组-2" transform="translate(528.000000, 187.000000)">
                <g id="编组" transform="translate(101.000000, 521.000000)">
                    <path d="M11.363961,9.86396103 C14.6776695,9.86396103 17.363961,12.5502525 17.363961,15.863961 C17.363961,19.1776695 14.6776695,21.863961 11.363961,21.863961 C8.05025253,21.863961 5.36396103,19.1776695 5.36396103,15.863961 C5.36396103,12.5502525 8.05025253,9.86396103 11.363961,9.86396103 Z M11.363961,11.863961 C9.15482203,11.863961 7.36396103,13.654822 7.36396103,15.863961 C7.36396103,18.0731 9.15482203,19.863961 11.363961,19.863961 C13.5731,19.863961 15.363961,18.0731 15.363961,15.863961 C15.363961,13.654822 13.5731,11.863961 11.363961,11.863961 Z M11.363961,2 L17.7279221,8.36396103 L16.3137085,9.77817459 L11.363961,4.82842712 L6.41421356,9.77817459 L5,8.36396103 L11.363961,2 Z" id="形状结合"></path>
                </g>
            </g>
        </g>
    </g>
</svg>