<?xml version="1.0" encoding="UTF-8"?>
<svg width="20px" height="20px" viewBox="0 0 20 20" version="1.1" xmlns="http://www.w3.org/2000/svg" xmlns:xlink="http://www.w3.org/1999/xlink">
    <g id="兑换" stroke="none" stroke-width="1" fill="none" fill-rule="evenodd" stroke-linejoin="round">
        <g id="画板" transform="translate(-270.000000, -261.000000)" fill-rule="nonzero" stroke="#FEFFFE" stroke-width="1.8">
            <path d="M287.412946,271 C287.412946,269.947321 288.073884,269.055357 289,268.699777 C288.779018,267.83192 288.4375,267.014286 287.991518,266.262946 C287.083482,266.666741 285.986607,266.502009 285.243304,265.756696 C284.5,265.013393 284.335268,263.914509 284.739062,263.008482 C283.985714,262.5625 283.16808,262.220982 282.300223,262 C281.942634,262.926116 281.05067,263.587054 280,263.587054 C278.947321,263.587054 278.055357,262.926116 277.699777,262 C276.83192,262.220982 276.014286,262.5625 275.262946,263.008482 C275.666741,263.916518 275.502009,265.013393 274.758705,265.756696 C274.015402,266.5 272.916518,266.664732 272.010491,266.262946 C271.5625,267.014286 271.220982,267.83192 271,268.699777 C271.926116,269.057366 272.587054,269.94933 272.587054,271 C272.587054,272.052679 271.926116,272.944643 271,273.300223 C271.220982,274.16808 271.5625,274.985714 272.008482,275.737054 C272.916518,275.333259 274.013393,275.497991 274.756696,276.243304 C275.5,276.986607 275.664732,278.085491 275.260938,278.991518 C276.014286,279.4375 276.83192,279.779018 277.699777,280 C278.057366,279.073884 278.94933,278.412946 280,278.412946 C281.052679,278.412946 281.944643,279.073884 282.300223,280 C283.16808,279.779018 283.985714,279.4375 284.737054,278.991518 C284.333259,278.083482 284.497991,276.986607 285.241295,276.243304 C285.984598,275.5 287.083482,275.335268 287.989509,275.737054 C288.4375,274.985714 288.779018,274.16808 289,273.300223 C288.073884,272.944643 287.412946,272.052679 287.412946,271 Z M280,273.470982 C278.635938,273.470982 277.529018,272.364062 277.529018,271 C277.529018,269.635938 278.635938,268.529018 280,268.529018 C281.364062,268.529018 282.470982,269.635938 282.470982,271 C282.470982,272.364062 281.364062,273.470982 280,273.470982 Z" id="形状"></path>
        </g>
    </g>
</svg>