<?xml version="1.0" encoding="UTF-8"?>
<svg width="24px" height="24px" viewBox="0 0 24 24" version="1.1" xmlns="http://www.w3.org/2000/svg" xmlns:xlink="http://www.w3.org/1999/xlink">
    <title>twitter备份</title>
    <g id="页面-2" stroke="none" stroke-width="1" fill="none" fill-rule="evenodd">
        <g id="画板备份-14" transform="translate(-495.000000, -798.000000)" fill="#FFFFFF" fill-rule="nonzero">
            <g id="编组-14" transform="translate(297.000000, 400.000000)">
                <g id="编组-10" transform="translate(156.000000, 397.000000)">
                    <g id="编组-4" transform="translate(41.000000, 0.000000)">
                        <g id="官网" transform="translate(0.500000, 0.500000)">
                            <g id="编组-9" transform="translate(-0.002477, 0.000000)">
                                <path d="M13,5 C17.418185,5 21,8.58181504 21,13 C21,17.418185 17.418185,21 13,21 C8.58181504,21 5,17.418185 5,13 C5,8.58181504 8.58181504,5 13,5 Z M13.0396363,17.0479967 C12.365091,17.0479967 11.7076354,17.091645 11.0839929,17.1738268 C11.5781751,18.6291005 12.2970847,19.5454648 12.9999886,19.5454648 C13.7043533,19.5454648 14.4254447,18.6251 14.918899,17.1643665 L14.918899,17.1643665 C14.2955257,17.0862974 13.6678673,17.0474331 13.0396191,17.0479967 L13.0396363,17.0479967 Z M9.63962824,17.4480094 L9.63962737,17.4480094 C9.26819643,17.5416186 8.90279787,17.6577115 8.54544989,17.7956451 L8.54544989,17.7956452 C9.05599925,18.270566 9.63909568,18.6609328 10.2727183,18.9520097 C10.0298085,18.5069185 9.81780888,18.0014641 9.63999057,17.4483728 L9.63962824,17.4480094 Z M16.3661785,17.4298275 L16.3589057,17.4531002 C16.1807244,18.0043728 15.9694509,18.50801 15.7276317,18.9516474 L15.7276317,18.9516474 C16.3707691,18.6562256 16.9618155,18.2585924 17.4778091,17.7741926 L17.4778091,17.7741923 C17.1145982,17.6370431 16.743365,17.5221631 16.3661761,17.4301926 L16.3661785,17.4298275 Z M9.03453122,14.0916433 L6.5450749,14.0909161 L6.5450749,14.0909161 C6.69786777,15.0012822 7.04258949,15.8687243 7.55634838,16.635651 C8.07380272,16.3985605 8.65453154,16.1981961 9.28107687,16.0385602 C9.16107679,15.423287 9.0774398,14.769832 9.03453124,14.0909161 L9.03453122,14.0916433 Z M19.4545514,14.0909118 L16.965088,14.0909118 L16.9650882,14.0909118 C16.9250023,14.7385526 16.8438698,15.3829991 16.7221801,16.0203734 C17.3534539,16.1763735 17.9389077,16.3734651 18.4618234,16.607646 L18.4618234,16.607646 C18.9654232,15.8475647 19.3036445,14.9901215 19.4545514,14.0909118 L19.4545514,14.0909118 Z M15.5061835,14.0909011 L10.4934521,14.0909011 L10.4934521,14.0909011 C10.5328017,14.6499593 10.6059039,15.2061239 10.7123585,15.7563568 L10.7123576,15.7563568 C11.4832457,15.6466493 12.2609775,15.5920864 13.0396263,15.5930839 L13.0396265,15.5930839 C13.7923032,15.5922967 14.5441429,15.6433265 15.2898156,15.7458113 C15.3901793,15.22872 15.4643612,14.67381 15.5065436,14.0909011 L15.5061835,14.0909011 Z M7.18472309,9.99236769 L7.1338139,10.0927314 L7.13381346,10.0927323 C6.74012454,10.8862687 6.51257097,11.751817 6.46508571,12.6363761 L9.00399092,12.6363761 C9.01780912,11.9727399 9.06944551,11.3287383 9.15562739,10.7145509 C8.42580869,10.5265513 7.76035367,10.2836415 7.18471122,9.99236769 L7.18472309,9.99236769 Z M15.4105414,10.9858128 L15.3963596,10.9880053 C14.6181778,11.1069145 13.7941761,11.1694594 12.9490908,11.1694594 C12.1345442,11.1694594 11.3399988,11.1112776 10.587271,11.0010957 L10.5872712,11.001094 C10.5142182,11.5433836 10.4713642,12.0893141 10.4589074,12.6363594 L15.5410985,12.6363594 C15.527644,12.061813 15.4821894,11.5090865 15.4105529,10.9858128 L15.4105414,10.9858128 Z M18.7934529,9.95127789 L18.7876347,9.95418698 C18.2210894,10.2490957 17.5632708,10.4960061 16.8410936,10.6887324 C16.9294573,11.3109141 16.9821845,11.963643 16.9963663,12.6363697 L19.5356468,12.6363697 L19.5356468,12.6363697 C19.4850839,11.6982861 19.2320142,10.7822661 18.7938315,9.95127789 L18.7934529,9.95127789 Z M12.9999886,6.45454814 L12.9479885,6.456372 C12.1479885,6.50728118 11.3352606,7.73055472 10.8636177,9.57091967 C11.5247091,9.66473792 12.2265272,9.71491977 12.9487044,9.71491977 C13.7072498,9.71491977 14.4432509,9.65964695 15.1327059,9.55673784 C14.6501607,7.68400355 13.8145238,6.45454814 12.9999772,6.45454814 L12.9999886,6.45454814 Z M10.2723611,7.04837185 L10.194174,7.08473545 L10.1941736,7.08473567 C9.35188718,7.48561777 8.6046446,8.06129773 8.00217769,8.77346414 C8.42217799,8.97164667 8.90399709,9.14328259 9.43126962,9.28400996 C9.64254306,8.43964572 9.9265427,7.68255428 10.2723611,7.04837185 L10.2723611,7.04837185 Z M15.7272632,7.04837185 L15.7399905,7.07055362 C16.0763538,7.69382623 16.3538097,8.43346311 16.5618087,9.25709495 C17.0825358,9.11382218 17.5559907,8.93927711 17.9683547,8.73854969 L17.9683547,8.73854975 C17.3519326,8.02005947 16.5874315,7.44336531 15.7272632,7.04800253 L15.7272632,7.04837185 Z" id="形状"></path>
                            </g>
                        </g>
                    </g>
                </g>
            </g>
        </g>
    </g>
</svg>