<?xml version="1.0" encoding="UTF-8"?>
<svg width="24px" height="24px" viewBox="0 0 24 24" version="1.1" xmlns="http://www.w3.org/2000/svg" xmlns:xlink="http://www.w3.org/1999/xlink">
    <title>twitter</title>
    <g id="页面-2" stroke="none" stroke-width="1" fill="none" fill-rule="evenodd">
        <g id="画板备份-14" transform="translate(-453.000000, -798.000000)" fill="#FFFFFF" fill-rule="nonzero">
            <g id="编组-14" transform="translate(297.000000, 400.000000)">
                <g id="编组-10" transform="translate(156.000000, 397.000000)">
                    <g id="编组-11" transform="translate(0.000000, 1.000000)">
                        <path d="M21.9375232,6.96348292 C21.2801006,7.247077 20.56467,7.4511788 19.8277551,7.53067108 C20.5883029,7.07735024 21.1662332,6.36191972 21.4390851,5.51113748 C20.7365452,5.93008328 19.9416224,6.2373102 19.114473,6.39629476 C18.4441598,5.68086424 17.4924008,5.2382856 16.4375168,5.2382856 C14.407241,5.2382856 12.7744266,6.88399064 12.7744266,8.90352424 C12.7744266,9.18711832 12.8088016,9.4707124 12.8646611,9.74356428 C9.82461848,9.58457972 7.1132872,8.13223428 5.31074604,5.90859888 C4.99277692,6.45430264 4.81230796,7.07735024 4.81230796,7.75840572 C4.81230796,9.0302822 5.4589884,10.1517679 6.44512236,10.811339 C5.84355916,10.7877061 5.276371,10.6179794 4.78867512,10.3451275 L4.78867512,10.3902447 C4.78867512,12.1713015 6.04766096,13.6472798 7.7255926,13.9867333 C7.41836568,14.0662256 7.08965436,14.1113428 6.76094304,14.1113428 C6.5224662,14.1113428 6.29688,14.08771 6.06914536,14.0554834 C6.5332084,15.5078288 7.88457716,16.5627128 9.49375872,16.5970879 C8.23477288,17.5832218 6.65781792,18.1633006 4.94551124,18.1633006 C4.63828432,18.1633006 4.35469024,18.1525584 4.06035396,18.1181834 C5.6845746,19.1601768 7.61172528,19.76174 9.68711832,19.76174 C16.4246262,19.76174 20.1113492,14.1800929 20.1113492,9.33536068 C20.1113492,9.17637612 20.1113492,9.01739156 20.100607,8.858407 C20.8138891,8.33633608 21.4390851,7.68965564 21.9375232,6.96348292 L21.9375232,6.96348292 Z" id="路径"></path>
                    </g>
                </g>
            </g>
        </g>
    </g>
</svg>