<?xml version="1.0" encoding="UTF-8"?>
<svg width="24px" height="24px" viewBox="0 0 24 24" version="1.1" xmlns="http://www.w3.org/2000/svg" xmlns:xlink="http://www.w3.org/1999/xlink">
    <title>twitter备份 3</title>
    <g id="页面-2" stroke="none" stroke-width="1" fill="none" fill-rule="evenodd">
        <g id="画板备份-14" transform="translate(-579.000000, -798.000000)" fill="#FFFFFF" fill-rule="nonzero">
            <g id="编组-14" transform="translate(297.000000, 400.000000)">
                <g id="编组-10" transform="translate(156.000000, 397.000000)">
                    <g id="编组-6" transform="translate(126.000000, 1.000000)">
                        <path d="M19.6358492,7.77458802 L19.6358493,7.77458811 C18.2827364,6.71525156 16.6342068,6.10472991 14.9192228,6.02781677 L14.926774,6.02021264 L14.9713031,6.0042245 L14.98391,6.0042245 L14.98391,6 L14.972567,6.0042245 L14.94233,6.0042245 L14.9263526,6.02021264 L14.905352,6.02781677 L14.9188015,6.02781677 L14.6642333,6.28053988 C17.5186714,7.11244191 18.8998795,8.41148048 18.8998795,8.41148048 L18.8998804,8.41148094 C17.2908929,7.57691093 15.5439084,7.04281823 13.7442432,6.83528468 L13.7442432,6.83528467 C12.6124149,6.69689756 11.4680087,6.69689723 10.3361901,6.83528386 L10.0610102,6.83528386 C9.41368494,6.83528386 8.03665105,7.11244415 6.19126021,7.85420429 C5.54853701,8.13555665 5.17927346,8.32007021 5.17927346,8.32007021 C5.17927346,8.32007021 6.55922416,6.93004418 9.59977998,6.1891296 L9.41369078,6.00169135 L9.4136908,6.00169135 C7.67196625,6.06693591 5.99555856,6.68342622 4.62476013,7.76279372 L4.62476044,7.76279312 C3.0505574,10.7685346 2.19935111,14.1018232 2.13916134,17.4962965 C2.13916134,17.4962965 3.51619523,19.9085901 7.29353455,20 C7.29353455,20 7.84467349,19.2611652 8.40212893,18.609974 C6.28158021,17.9613175 5.4552607,16.6635463 5.4552607,16.6635463 L5.45526106,16.6635465 C5.61460807,16.7467246 5.76891356,16.8392726 5.91736957,16.9407058 L6.00137241,16.9407058 L6.00137241,16.9407058 C6.03425575,16.9413992 6.06509183,16.9568589 6.08537493,16.9828208 L6.08537493,16.9912698 L6.08537493,16.9912698 C6.10521888,17.0177788 6.13635377,17.0333703 6.16940986,17.0333524 C6.62393793,17.222058 7.078466,17.4078376 7.45022503,17.5880967 L7.45022494,17.5880967 C8.24508515,17.9306539 9.07675536,18.1799815 9.92869409,18.3311235 L9.92869423,18.3311236 C11.3929955,18.5646285 12.8849027,18.5646285 14.3492007,18.3311235 L14.3492012,18.3311234 C15.1983982,18.1692097 16.0288595,17.9206644 16.827638,17.5893639 L16.8276371,17.5893643 C17.4869958,17.2843144 18.1291421,16.9431743 18.7511755,16.5674867 C18.7511755,16.5674867 17.9248884,17.8652579 15.7148296,18.5143369 C16.1693901,19.1605236 16.8095854,19.9010157 16.8095854,19.9010157 C20.5902758,19.8167528 22.0563887,17.4048807 22.1391613,17.5076677 L22.1391613,17.5076857 C22.0751259,14.1116851 21.2177444,10.7781105 19.6358767,7.77460482 L19.6358492,7.77458802 Z M15.215375,15.8316526 L15.2153751,15.8316526 C14.1951403,15.7971021 13.3960119,14.9397909 13.430469,13.9167922 C13.4632921,12.9423012 14.2435203,12.1599631 15.2153751,12.1270505 L15.2153751,12.122826 L15.2153752,12.122826 C16.2367637,12.1787463 17.0195516,13.0543206 16.9637824,14.0784762 C16.9122685,15.0244904 16.1588334,15.7799667 15.2153752,15.8316526 L15.215375,15.8316526 Z M8.9562155,15.8316526 L8.9562156,15.8316526 C7.93598079,15.7971021 7.13685233,14.9397909 7.17130945,13.9167922 C7.20413252,12.9423012 7.98436077,12.1599631 8.9562156,12.1270505 L8.96166023,12.122826 L8.96166026,12.122826 C9.98292566,12.1849278 10.7606189,13.065415 10.6986855,14.0894471 C10.641818,15.0297093 9.89205764,15.7784394 8.95410899,15.8316526 L8.9562155,15.8316526 Z" id="形状"></path>
                    </g>
                </g>
            </g>
        </g>
    </g>
</svg>