<?xml version="1.0" encoding="UTF-8"?>
<svg width="24px" height="24px" viewBox="0 0 24 24" version="1.1" xmlns="http://www.w3.org/2000/svg" xmlns:xlink="http://www.w3.org/1999/xlink">
    <title>twitter备份 2</title>
    <g id="页面-2" stroke="none" stroke-width="1" fill="none" fill-rule="evenodd">
        <g id="画板备份-14" transform="translate(-537.000000, -798.000000)" fill="#FFFFFF" fill-rule="nonzero">
            <g id="编组-14" transform="translate(297.000000, 400.000000)">
                <g id="编组-10" transform="translate(156.000000, 397.000000)">
                    <g id="编组-8" transform="translate(84.000000, 1.000000)">
                        <path d="M9.27295523,18.524986 L9.52962291,14.6474815 L16.5696311,8.30414795 C16.8812989,8.01998024 16.5054643,7.88248008 16.0929632,8.12998101 L7.40295306,13.6208136 L3.64462251,12.4291448 C2.83795419,12.1999772 2.82878895,11.6408113 3.82795599,11.237476 L18.4671468,5.59079563 C19.136315,5.28829528 19.777981,5.75579583 19.5213155,6.7824644 L17.0279864,18.5249781 C16.8538194,19.3591464 16.349653,19.5608119 15.6529848,19.1758114 L11.8579804,16.3708082 L10.0338109,18.1399776 C9.82297736,18.3508111 9.64881042,18.5249781 9.27297736,18.5249781 L9.27295523,18.524986 Z" id="路径"></path>
                    </g>
                </g>
            </g>
        </g>
    </g>
</svg>