<?xml version="1.0" encoding="UTF-8"?>
<svg width="20px" height="20px" viewBox="0 0 20 20" version="1.1" xmlns="http://www.w3.org/2000/svg" xmlns:xlink="http://www.w3.org/1999/xlink">
    <g id="页面-2" stroke="none" stroke-width="1" fill="none" fill-rule="evenodd">
        <g id="盲盒14备份-2" transform="translate(-1144.000000, -992.000000)">
            <g id="编组-3备份-18" transform="translate(1007.000000, 695.000000)">
                <g id="编组-4备份" transform="translate(137.000000, 297.000000)">
                    <path d="M10,0 C15.5228475,0 20,4.4771525 20,10 C20,15.5228475 15.5228475,20 10,20 C4.4771525,20 0,15.5228475 0,10 C0,4.4771525 4.4771525,0 10,0 Z M10,3 C6.13400675,3 3,6.13400675 3,10 C3,13.8659932 6.13400675,17 10,17 C13.8659932,17 17,13.8659932 17,10 C17,6.13400675 13.8659932,3 10,3 Z" id="形状结合" fill=""></path>
                    <path d="M18.5,11.5 C19.3284271,11.5 20,10.8284271 20,10 C20,9.17157288 19.3284271,8.5 18.5,8.5 C17.6715729,8.5 17,9.17157288 17,10 C17,10.8284271 17.6715729,11.5 18.5,11.5 Z" id="椭圆形" fill="#CDD4D5"></path>
                </g>
            </g>
        </g>
    </g>
</svg>