<?xml version="1.0" encoding="UTF-8"?>
<svg width="24px" height="25px" viewBox="0 0 24 25" version="1.1" xmlns="http://www.w3.org/2000/svg" xmlns:xlink="http://www.w3.org/1999/xlink">
    <g id="页面-1" stroke="none" stroke-width="1" fill="none" fill-rule="evenodd">
        <g id="画板" transform="translate(-205.000000, -776.000000)" fill="currentColor" fill-rule="nonzero">
            <g id="编组-19" transform="translate(204.636039, 776.000000)">
                <path d="M12.363961,10.863961 C15.6776695,10.863961 18.363961,13.5502525 18.363961,16.863961 C18.363961,20.1776695 15.6776695,22.863961 12.363961,22.863961 C9.05025253,22.863961 6.36396103,20.1776695 6.36396103,16.863961 C6.36396103,13.5502525 9.05025253,10.863961 12.363961,10.863961 Z M12.363961,12.863961 C10.154822,12.863961 8.36396103,14.654822 8.36396103,16.863961 C8.36396103,19.0731 10.154822,20.863961 12.363961,20.863961 C14.5731,20.863961 16.363961,19.0731 16.363961,16.863961 C16.363961,14.654822 14.5731,12.863961 12.363961,12.863961 Z M12.363961,3 L18.7279221,9.36396103 L17.3137085,10.7781746 L12.363961,5.82842712 L7.41421356,10.7781746 L6,9.36396103 L12.363961,3 Z" id="形状结合"></path>
            </g>
        </g>
    </g>
</svg>