<?xml version="1.0" encoding="UTF-8"?>
<svg width="10px" height="14px" viewBox="0 0 10 14" version="1.1" xmlns="http://www.w3.org/2000/svg" xmlns:xlink="http://www.w3.org/1999/xlink">
    <g id="页面-2" stroke="none" stroke-width="1" fill="none" fill-rule="evenodd">
        <g id="兑换1备份-16" transform="translate(-395.000000, -655.000000)" fill-rule="nonzero">
            <g id="编组-5备份-3" transform="translate(380.000000, 521.000000)">
                <g id="lQLPDhrcTbVu1VfNBT7NBUSw2tXRTjc3RIMBljApYoASAA_1348_1342.png_720x720g" transform="translate(8.000000, 8.000000)">
                    <g id="编组-12" transform="translate(0.000000, 108.000000)">
                        <g id="算力" transform="translate(7.000000, 18.000000)">
                            <path d="M1.73335,7.42133847 C1.73521122,7.42133847 1.73893365,7.41947725 1.74079487,7.41947725 L4.30927327,7.44553423 L2.76632813,12.5285224 L2.76818935,12.5285224 C2.7626057,12.558302 2.75702204,12.5862202 2.75888326,12.6159996 C2.76446691,12.8039823 2.71979765,12.7835086 2.85566652,12.7760646 C2.92453152,12.7723422 2.98967412,12.7276729 3.03434284,12.6532242 L6.95407037,6.25063809 C6.95779281,6.24505444 6.95965403,6.24133201 6.96337646,6.23574833 L6.96523768,6.23202589 C7.00432329,6.16874457 7.02665787,6.08498923 7.02293546,6.00309573 C7.01735181,5.82255698 6.91126244,5.68110472 6.77911597,5.67924373 L6.77725475,5.67924373 C6.77353232,5.67924373 6.76980988,5.67738251 6.76794867,5.67738251 C6.76608745,5.67738251 6.76422623,5.67924373 6.76236502,5.67924373 L5.19336607,5.65690915 L6.26356588,2.44630394 C6.28031678,2.39791224 6.28962286,2.34579827 6.28776173,2.29368431 C6.28590052,2.20434586 6.25612107,2.11872997 6.20772937,2.05731021 C6.15933767,1.99589001 6.09605635,1.96424935 6.02905305,1.96797176 C6.02719183,1.96797176 6.0234694,1.96983297 6.02160818,1.96983297 L3.16091166,1.96797176 C3.15718923,1.96797176 3.15346679,1.96611054 3.15160557,1.96611054 C3.05668345,1.97169419 2.97292925,2.05172658 2.93570376,2.17270598 L2.93570376,2.1745672 C2.93384254,2.18015085 2.93198132,2.18759572 2.93012011,2.19317937 L0.795309207,7.18310383 C0.780419441,7.22963426 0.772974631,7.27988709 0.774835761,7.3301405 C0.778558195,7.51626221 1.59749411,7.42878504 1.73336198,7.42134008 L1.73335,7.42133847 Z" id="路径" fill="#EDCB62" opacity="0.3"></path>
                            <path d="M3.72672595,1.06899624 L7.6706463,1.07086017 L5.86525882,5.01478052 L5.86712004,5.01478052 C5.83920178,5.07433944 5.82431202,5.13762091 5.82617329,5.20276322 C5.83361816,5.42610898 6.01787796,5.59920234 6.23936417,5.60106332 L6.24122539,5.60106332 C6.24867026,5.60106332 6.25239269,5.60478576 6.25983756,5.60478576 C6.26356,5.60478576 6.26728243,5.60292454 6.27100486,5.60292454 L8.68128501,5.62712039 L3.71183139,11.5402094 L4.57171379,7.80660939 L4.56613014,7.80474817 C4.57357501,7.7693851 4.58474231,7.73402189 4.58288104,7.69679755 C4.57357495,7.46600641 4.38000901,7.2854691 4.14921787,7.29477403 C4.14549543,7.29477403 4.141773,7.29663525 4.13805056,7.29663525 L1.05960422,7.29663525 L3.72672932,1.06899624 L3.72672595,1.06899624 Z M0.445403254,8.13046078 C0.449125688,8.13046078 0.452848122,8.12859957 0.456570556,8.12859957 L3.64296852,8.12859957 L2.51507092,13.0347652 L2.51879336,13.0347652 C2.51134849,13.0701283 2.50018119,13.1054915 2.50204246,13.1427158 C2.51134855,13.375368 2.70491449,13.5540443 2.93570563,13.5447394 C3.05296234,13.5391557 3.16277481,13.4833192 3.23722292,13.3939807 L9.86129528,5.51172297 C9.86687893,5.50613932 9.87060136,5.49869445 9.87618504,5.4931108 L9.87804626,5.48938837 C9.94505013,5.41121728 9.9804132,5.31071205 9.97862181,5.20648383 C9.96924584,4.98499906 9.78870824,4.81004471 9.56536104,4.80818373 L9.56163861,4.80818373 C9.55605495,4.80818373 9.5504713,4.80632251 9.54488771,4.80632251 C9.54116528,4.80632251 9.53744284,4.80818373 9.53558162,4.80818373 L6.8852054,4.78026547 L8.69431486,0.828901169 L8.69245364,0.828901169 C8.72037189,0.771203382 8.73526166,0.706060785 8.73340039,0.640918476 C8.72967795,0.529245452 8.68128628,0.425016661 8.59939278,0.350568555 C8.51749929,0.274258598 8.40954911,0.235173126 8.29973649,0.240756806 C8.29601406,0.240756806 8.29229162,0.242618023 8.28856919,0.242618023 L3.45312101,0.240756806 C3.44753736,0.240756806 3.44195371,0.238895589 3.43637011,0.238895589 C3.2763051,0.246340457 3.13299185,0.344984933 3.07157209,0.493882443 L3.06971087,0.49574366 C3.06784965,0.503188528 3.062266,0.510633425 3.06040478,0.518078236 L0.0470929621,7.54788888 C0.0228971113,7.60372539 0.00986862067,7.66514558 0.0117298954,7.72842763 C0.0210359808,7.95921877 0.214601921,8.13975608 0.445393069,8.13045115 L0.445403254,8.13046078 Z" id="形状" fill="#EECB62"></path>
                        </g>
                    </g>
                </g>
            </g>
        </g>
    </g>
</svg>