<?xml version="1.0" encoding="UTF-8"?>
<svg width="14px" height="14px" viewBox="0 0 14 14" version="1.1" xmlns="http://www.w3.org/2000/svg" xmlns:xlink="http://www.w3.org/1999/xlink">
    <g id="页面-2" stroke="none" stroke-width="1" fill="none" fill-rule="evenodd">
        <g id="规范切片" transform="translate(-1545.000000, -1309.000000)" fill="#391B0F">
            <g id="编组-8" transform="translate(1545.000000, 1309.000000)">
                <g id="编组-9">
                    <circle id="椭圆形" opacity="0.200000003" cx="7" cy="7" r="7"></circle>
                    <path d="M7,10 C7.55228475,10 8,10.4477153 8,11 C8,11.5522847 7.55228475,12 7,12 C6.44771525,12 6,11.5522847 6,11 C6,10.4477153 6.44771525,10 7,10 Z M7,2 C8.65685425,2 10,3.34314575 10,5 C10,6.20200055 9.28650581,7.26934822 8.21433094,7.7438375 L8.04211118,7.81376326 L8,7.827 L8,8.5 C8,9.01283584 7.61395981,9.43550716 7.11662113,9.49327227 L7,9.5 C6.48716416,9.5 6.06449284,9.11395981 6.00672773,8.61662113 L6,8.5 L6,7 C6,6.48304318 6.39402079,6.05129902 6.90882439,6.00416517 L7.20126095,5.96907213 C7.27566822,5.95734524 7.32568341,5.94634128 7.347345,5.93831666 C7.73628579,5.79423209 8,5.42194383 8,5 C8,4.44771525 7.55228475,4 7,4 C6.48716416,4 6.06449284,4.38604019 6.00672773,4.88337887 L6,5 C6,5.55228475 5.55228475,6 5,6 C4.44771525,6 4,5.55228475 4,5 C4,3.34314575 5.34314575,2 7,2 Z" id="形状结合" fill-rule="nonzero" opacity="0.5"></path>
                </g>
            </g>
        </g>
    </g>
</svg>