<?xml version="1.0" encoding="UTF-8"?>
<svg width="16px" height="16px" viewBox="0 0 16 16" version="1.1" xmlns="http://www.w3.org/2000/svg" xmlns:xlink="http://www.w3.org/1999/xlink">
    <title>编组 10</title>
    <g id="页面-2" stroke="none" stroke-width="1" fill="none" fill-rule="evenodd">
        <g id="我的收藏1" transform="translate(-597.000000, -575.000000)" fill-rule="nonzero">
            <g id="编组-6备份-5" transform="translate(370.000000, 282.000000)">
                <g id="编组-10" transform="translate(227.000000, 291.000000)">
                    <g id="编组-11" transform="translate(0.000000, 2.000000)">
                        <g id="编组-9" transform="translate(1.000000, 2.000000)">
                            <path d="M9.93526218,0 L3.82591222,0 C3.48967001,0 3.17622389,0.165271594 2.98245719,0.438824577 L0.184238134,4.45948353 C-0.0978633795,4.86411398 -0.0522712156,5.41406946 0.295369034,5.76455922 L6.14826307,11.69439 C6.55004401,12.10187 7.20828088,12.10187 7.61006182,11.69439 L13.4629559,5.76740873 C13.8105961,5.41691897 13.8561883,4.86696349 13.5740868,4.46233304 L10.7758677,0.441674087 C10.5849505,0.165271594 10.2715044,0 9.93526218,0 L9.93526218,0 Z" id="路径" stroke="#FF7700" stroke-width="1.5"></path>
                            <path d="M6.34883236,4.26669668 C6.61509892,4.00043012 7.0317626,3.97622406 7.3253741,4.19407852 L7.40949253,4.26669668 L10.4094925,7.26669668 C10.7023857,7.5595899 10.7023857,8.03446363 10.4094925,8.32735685 C10.143226,8.59362341 9.72656228,8.61782946 9.43295079,8.399975 L9.34883236,8.32735685 L6.87916244,5.85802676 L4.40949253,8.32735685 C4.14322597,8.59362341 3.72656228,8.61782946 3.43295079,8.399975 L3.34883236,8.32735685 C3.0825658,8.06109029 3.05835974,7.6444266 3.2762142,7.35081511 L3.34883236,7.26669668 L6.34883236,4.26669668 Z" id="形状结合" fill="#FF7700" transform="translate(6.879162, 6.297027) scale(1, -1) translate(-6.879162, -6.297027) "></path>
                        </g>
                    </g>
                </g>
            </g>
        </g>
    </g>
</svg>