<?xml version="1.0" encoding="UTF-8"?>
<svg width="21px" height="21px" viewBox="0 0 21 21" version="1.1" xmlns="http://www.w3.org/2000/svg" xmlns:xlink="http://www.w3.org/1999/xlink">
    <g id="页面-1" stroke="none" stroke-width="1" fill="none" fill-rule="evenodd">
        <g id="规范切片" transform="translate(-263.000000, -875.000000)">
            <g id="编组-6" transform="translate(264.000000, 876.000000)">
                <path d="M9.5,3.5 C10.0522847,3.5 10.5,3.94771525 10.5,4.5 L10.5,8.95 L12.7050076,10.4543983 C13.1709338,10.7722522 13.3130988,11.3955191 13.0310889,11.8839746 C12.774938,12.327641 12.207624,12.4796523 11.7639576,12.2235014 C11.7438508,12.2118927 11.724187,12.1995333 11.7050076,12.1864491 L9.32608135,10.5635509 C9.27590468,10.5293205 9.22948287,10.491548 9.18694134,10.4507833 C8.78862615,10.3194577 8.5,9.94343498 8.5,9.5 L8.5,4.5 C8.5,3.94771525 8.94771525,3.5 9.5,3.5 Z" id="形状结合" fill="#391B0F"></path>
                <path d="M0,9.5 C0,14.7467051 4.25329488,19 9.5,19 C14.7467051,19 19,14.7467051 19,9.5 C19,4.25329488 14.7467051,0 9.5,0 C6.58382596,0 3.97454153,1.31395067 2.23188189,3.38211685" id="路径" stroke="#391B0F" stroke-width="1.8" stroke-linecap="round" fill-rule="nonzero"></path>
                <polyline id="路径-5" stroke="#391B0F" stroke-width="2" stroke-linecap="round" stroke-linejoin="round" points="2 0.5 2 3.5 5 3.5"></polyline>
            </g>
        </g>
    </g>
</svg>