<?xml version="1.0" encoding="UTF-8"?>
<svg width="20px" height="21px" viewBox="0 0 20 21" version="1.1" xmlns="http://www.w3.org/2000/svg" xmlns:xlink="http://www.w3.org/1999/xlink">
    <g id="页面-1" stroke="none" stroke-width="1" fill="none" fill-rule="evenodd" stroke-linejoin="round">
        <g id="规范切片" transform="translate(-1209.000000, -877.000000)" fill-rule="nonzero" stroke="#391B0F" stroke-width="1.8">
            <path d="M1226.41295,887.5 C1226.41295,886.447321 1227.07388,885.555357 1228,885.199777 C1227.77902,884.33192 1227.4375,883.514286 1226.99152,882.762946 C1226.08348,883.166741 1224.98661,883.002009 1224.2433,882.256696 C1223.5,881.513393 1223.33527,880.414509 1223.73906,879.508482 C1222.98571,879.0625 1222.16808,878.720982 1221.30022,878.5 C1220.94263,879.426116 1220.05067,880.087054 1219,880.087054 C1217.94732,880.087054 1217.05536,879.426116 1216.69978,878.5 C1215.83192,878.720982 1215.01429,879.0625 1214.26295,879.508482 C1214.66674,880.416518 1214.50201,881.513393 1213.75871,882.256696 C1213.0154,883 1211.91652,883.164732 1211.01049,882.762946 C1210.5625,883.514286 1210.22098,884.33192 1210,885.199777 C1210.92612,885.557366 1211.58705,886.44933 1211.58705,887.5 C1211.58705,888.552679 1210.92612,889.444643 1210,889.800223 C1210.22098,890.66808 1210.5625,891.485714 1211.00848,892.237054 C1211.91652,891.833259 1213.01339,891.997991 1213.7567,892.743304 C1214.5,893.486607 1214.66473,894.585491 1214.26094,895.491518 C1215.01429,895.9375 1215.83192,896.279018 1216.69978,896.5 C1217.05737,895.573884 1217.94933,894.912946 1219,894.912946 C1220.05268,894.912946 1220.94464,895.573884 1221.30022,896.5 C1222.16808,896.279018 1222.98571,895.9375 1223.73705,895.491518 C1223.33326,894.583482 1223.49799,893.486607 1224.24129,892.743304 C1224.9846,892 1226.08348,891.835268 1226.98951,892.237054 C1227.4375,891.485714 1227.77902,890.66808 1228,889.800223 C1227.07388,889.444643 1226.41295,888.552679 1226.41295,887.5 Z M1219,889.970982 C1217.63594,889.970982 1216.52902,888.864063 1216.52902,887.5 C1216.52902,886.135937 1217.63594,885.029018 1219,885.029018 C1220.36406,885.029018 1221.47098,886.135937 1221.47098,887.5 C1221.47098,888.864063 1220.36406,889.970982 1219,889.970982 Z" id="形状备份-3"></path>
        </g>
    </g>
</svg>