<?xml version="1.0" encoding="UTF-8"?>
<svg width="154px" height="247px" viewBox="0 0 154 247" version="1.1" xmlns="http://www.w3.org/2000/svg" xmlns:xlink="http://www.w3.org/1999/xlink">
    <title>编组 14</title>
    <g id="兑换" stroke="none" stroke-width="1" fill="none" fill-rule="evenodd">
        <g id="画板" transform="translate(-1830.000000, -1711.000000)">
            <g id="编组-14" transform="translate(1830.574706, 1711.136410)">
                <g id="编组-3备份" transform="translate(44.925294, 44.863590) rotate(-46.000000) translate(-44.925294, -44.863590) translate(14.425294, 11.863590)">
                    <polygon id="路径-78" fill="#F7B01F" points="30.491392 31.6862086 30.491392 65.25 1.42755745 47.0735858 0.116391971 16.3125"></polygon>
                    <polygon id="路径-78备份-2" fill="#FFC025" points="30.4789374 31.78125 60.303892 15.6007717 30.4789374 -5.80190196e-14 0.116391971 16.4173584"></polygon>
                    <polygon id="路径-78备份" fill="#D99814" points="30.491392 31.6682367 30.491392 65.25 60.303892 47.1579159 60.303892 15.46875"></polygon>
                </g>
                <g id="编组-3备份-7" transform="translate(118.339303, 212.511475) rotate(67.000000) translate(-118.339303, -212.511475) translate(93.839303, 186.011475)">
                    <polygon id="路径-78" fill="#FECA4A" points="24.3931136 25.3489669 24.3931136 52.2 1.14204596 37.6588686 0.093113577 13.05"></polygon>
                    <polygon id="路径-78备份-2" fill="#D99814" points="24.3831499 25.425 48.2431136 12.4806173 24.3831499 -4.64152157e-14 0.093113577 13.1338868"></polygon>
                    <polygon id="路径-78备份" fill="#E4A21A" points="24.3931136 25.3345893 24.3931136 52.2 48.2431136 37.7263327 48.2431136 12.375"></polygon>
                </g>
            </g>
        </g>
    </g>
</svg>