<?xml version="1.0" encoding="UTF-8"?>
<svg width="24px" height="24px" viewBox="0 0 24 24" version="1.1" xmlns="http://www.w3.org/2000/svg" xmlns:xlink="http://www.w3.org/1999/xlink">
    <title></title>
    <g id="页面-2" stroke="none" stroke-width="1" fill="none" fill-rule="evenodd">
        <g id="我的NFT-详情7" transform="translate(-1137.000000, -464.000000)">
            <g id="编组-13" transform="translate(370.000000, 175.000000)">
                <g id="编组-6" transform="translate(576.000000, 285.000000)">
                    <g id="编组-8" transform="translate(191.000000, 4.000000)">
                        <path d="M21,9 L21,19 C21,20.1045695 20.1045695,21 19,21 L5,21 C3.8954305,21 3,20.1045695 3,19 L3,5 C3,3.8954305 3.8954305,3 5,3 L16,3 L16,3" id="路径" stroke="#FB8000" stroke-width="2" stroke-linecap="round"></path>
                        <path d="M9.41421356,8 L23,8 C23.5522847,8 24,8.44771525 24,9 C24,9.55228475 23.5522847,10 23,10 L9.41421356,10 C9.14899707,10 8.89464316,9.89464316 8.70710678,9.70710678 L8.5,9.5 C8.22385763,9.22385763 8.22385763,8.77614237 8.5,8.5 L8.70710678,8.29289322 C8.89464316,8.10535684 9.14899707,8 9.41421356,8 Z" id="矩形" fill="#FB8000" transform="translate(16.000000, 9.000000) rotate(-45.000000) translate(-16.000000, -9.000000) "></path>
                    </g>
                </g>
            </g>
        </g>
    </g>
</svg>
