<?xml version="1.0" encoding="UTF-8"?>
<svg width="16px" height="16px" viewBox="0 0 16 16" version="1.1" xmlns="http://www.w3.org/2000/svg" xmlns:xlink="http://www.w3.org/1999/xlink">
    <g id="页面-1" stroke="none" stroke-width="1" fill="none" fill-rule="evenodd">
        <g id="画板" transform="translate(-245.000000, -746.000000)" fill-rule="nonzero">
            <g id="编组-9" transform="translate(245.000000, 746.000000)">
                <path d="M10.9352622,2 L4.82591222,2 C4.48967001,2 4.17622389,2.16527159 3.98245719,2.43882458 L1.18423813,6.45948353 C0.902136621,6.86411398 0.947728784,7.41406946 1.29536903,7.76455922 L7.14826307,13.69439 C7.55004401,14.10187 8.20828088,14.10187 8.61006182,13.69439 L14.4629559,7.76740873 C14.8105961,7.41691897 14.8561883,6.86696349 14.5740868,6.46233304 L11.7758677,2.44167409 C11.5849505,2.16527159 11.2715044,2 10.9352622,2 L10.9352622,2 Z" id="路径" stroke="#FFFFFF" stroke-width="1.5"></path>
                <path d="M7.34883236,6.26669668 C7.61509892,6.00043012 8.0317626,5.97622406 8.3253741,6.19407852 L8.40949253,6.26669668 L11.4094925,9.26669668 C11.7023857,9.5595899 11.7023857,10.0344636 11.4094925,10.3273568 C11.143226,10.5936234 10.7265623,10.6178295 10.4329508,10.399975 L10.3488324,10.3273568 L7.87916244,7.85802676 L5.40949253,10.3273568 C5.14322597,10.5936234 4.72656228,10.6178295 4.43295079,10.399975 L4.34883236,10.3273568 C4.0825658,10.0610903 4.05835974,9.6444266 4.2762142,9.35081511 L4.34883236,9.26669668 L7.34883236,6.26669668 Z" id="形状结合" fill="#FFFFFF" transform="translate(7.879162, 8.297027) scale(1, -1) translate(-7.879162, -8.297027) "></path>
            </g>
        </g>
    </g>
</svg>