<?xml version="1.0" encoding="UTF-8"?>
<svg width="62px" height="43px" viewBox="0 0 62 43" version="1.1" xmlns="http://www.w3.org/2000/svg" xmlns:xlink="http://www.w3.org/1999/xlink">
    <title>形状</title>
    <g id="NFT" stroke="none" stroke-width="1" fill="none" fill-rule="evenodd">
        <g id="弹框1备份-7" transform="translate(-495.000000, -380.000000)" fill="#FFFFFF" fill-rule="nonzero">
            <path d="M536,413.478362 C533.581626,410.739141 529.968352,409 525.931254,409 C521.96998,409 518.416728,410.674419 516,413.325081 L526.094518,423 L536,413.478362 L536,413.478362 Z M547,402.883908 C541.883582,397.420534 534.563445,394 526.434452,394 C518.374633,394 511.109992,397.36258 506,402.744872 L511.170047,407.851379 C514.954551,403.773406 520.392193,401.216622 526.434408,401.216622 C532.549706,401.216622 538.045693,403.835638 541.835338,408 L547,402.883908 L547,402.883908 L547,402.883908 Z M557,392.944561 C549.192555,384.970697 538.164265,380 525.940683,380 C513.778885,380 502.800328,384.920566 495,392.823862 L500.196362,397.871127 C506.66591,391.25856 515.807627,387.135972 525.940683,387.135972 C536.139409,387.135972 545.333872,391.312166 551.81045,398 L557,392.944561 Z" id="形状"></path>
        </g>
    </g>
</svg>