<?xml version="1.0" encoding="UTF-8"?>
<svg width="32px" height="32px" viewBox="0 0 32 32" version="1.1" xmlns="http://www.w3.org/2000/svg" xmlns:xlink="http://www.w3.org/1999/xlink">
    <title>编组 23</title>
    <g id="页面-4" stroke="none" stroke-width="1" fill="none" fill-rule="evenodd">
        <g id="画板备份-24" transform="translate(-1032.000000, -3975.000000)">
            <g id="编组-23" transform="translate(1032.000000, 3975.000000)">
                <circle id="椭圆形" fill="#D1D2DE" opacity="0.200000003" cx="16" cy="16" r="16"></circle>
                <path d="M16,9.6878705 C12.0178004,9.6878705 9.22534878,11.3690875 9.22534878,11.3690875 C10.7566212,10.0241139 13.4285354,9.24833663 13.4285354,9.24833663 L13.1762995,9 C10.665102,9.04395339 8.39274729,10.7559378 8.39274729,10.7559378 C5.83913845,16.0061698 6.00208726,20.5399616 6.00208726,20.5399616 C8.08247489,23.1859555 11.1718059,22.996956 11.1718059,22.996956 L12.2276249,21.680552 C10.3704548,21.2849715 9.1963305,19.6630916 9.1963305,19.6630916 C9.1963305,19.6630916 11.9887821,21.5355058 16,21.5355058 C20.0112211,21.5355058 22.8036727,19.6630916 22.8036727,19.6630916 C22.8036727,19.6630916 21.6295484,21.2871692 19.7723783,21.680552 L20.8281974,22.996956 C20.8281974,22.996956 23.9175283,23.1881532 25.997916,20.5399616 C25.997916,20.5399616 26.1608648,16.0061698 23.6050238,10.7559378 C23.6050238,10.7559378 21.332669,9.04395339 18.8214715,9 L18.5692357,9.24833663 C18.5692357,9.24833663 21.243382,10.0241139 22.7724223,11.3690875 C22.7746545,11.3690875 19.9822028,9.6878705 16,9.6878705 M12.9262959,15.2303925 C13.8928279,15.2303925 14.6785537,16.0633092 14.6651606,17.0874231 C14.6651606,18.0961533 13.8928279,18.9444537 12.9262959,18.9444537 C11.9753891,18.9444537 11.2030563,18.0961533 11.2030563,17.0874231 C11.2030563,16.0633092 11.9597638,15.2303925 12.9262959,15.2303925 M19.1205831,15.2303925 C20.0871151,15.2303925 20.8594478,16.0633092 20.8594478,17.0874231 C20.8594478,18.0961533 20.0871151,18.9444537 19.1205831,18.9444537 C18.1696763,18.9444537 17.3973435,18.0961533 17.3973435,17.0874231 C17.3973435,16.0633092 18.154051,15.2303925 19.1205831,15.2303925 Z" id="形状" fill="#FFFFFF" fill-rule="nonzero"></path>
            </g>
        </g>
    </g>
</svg>