<?xml version="1.0" encoding="UTF-8"?>
<svg width="247px" height="71px" viewBox="0 0 247 71" version="1.1" xmlns="http://www.w3.org/2000/svg" xmlns:xlink="http://www.w3.org/1999/xlink">
    <title>编组 34</title>
    <g id="页面-4" stroke="none" stroke-width="1" fill="none" fill-rule="evenodd">
        <g id="画板备份-25" transform="translate(-285.000000, -3974.000000)" fill="#FFFFFF">
            <g id="编组-34" transform="translate(285.500000, 3974.000000)">
                <text id="Fun-is-All.-All-in-K" font-family="PingFangSC-Regular, PingFang SC" font-size="21" font-weight="normal" letter-spacing="1">
                    <tspan x="0" y="64">Fun is All. All in KIKO</tspan>
                </text>
                <g id="编组-53" transform="translate(1.500000, 0.000000)" fill-rule="nonzero">
                    <path d="M98.466521,10.2737321 L106.387045,29.2958388 C106.567057,29.7893368 106.972084,30.0136541 107.557123,30.0136541 C108.187165,30.0136541 108.592192,29.7893368 108.817206,29.2958388 L108.817206,29.2958388 L117.052752,10.2737321 L122.183092,10.2737321 L113.002484,31.4044213 C112.012418,33.6475943 110.257302,34.5 107.557123,34.5 C104.811941,34.5 103.056825,33.6027308 102.156765,31.4044213 L102.156765,31.4044213 L93.4261872,10.2737321 L98.466521,10.2737321 Z M4.77031591,0 L4.77031591,33.9616385 L0,33.9616385 L0,0 L4.77031591,0 Z M31.8621101,10.2737321 L31.8621101,33.9616385 L27.0917942,33.9616385 L27.0917942,10.2737321 L31.8621101,10.2737321 Z M43.472879,0 L43.472879,33.9616385 L38.7025631,33.9616385 L38.7025631,0 L43.472879,0 Z M79.970296,10.2737321 C86.2707133,10.2737321 90.2759785,14.1319896 90.2759785,22.1176853 C90.2759785,30.103381 86.2707133,33.9616385 79.970296,33.9616385 L79.970296,33.9616385 L74.9749652,33.9616385 C68.629545,33.9616385 64.6692827,30.103381 64.6692827,22.1176853 C64.6692827,14.1319896 68.629545,10.2737321 74.9749652,10.2737321 L74.9749652,10.2737321 Z M141.9394,10.2737321 C147.564773,10.2737321 149.94993,12.9655397 149.94993,17.5416125 C149.94993,21.893368 147.744784,24.3608583 141.894397,24.3608583 L141.894397,24.3608583 L130.598649,24.3608583 L130.598649,26.0656697 C130.598649,27.949935 131.633717,29.3407022 134.24389,29.3407022 L134.24389,29.3407022 L148.779853,29.3407022 L148.779853,33.9616385 L134.24389,33.9616385 C128.303497,33.9616385 125.963342,30.6417425 125.963342,26.1553966 L125.963342,26.1553966 L125.963342,18.079974 C125.963342,13.5936281 128.303497,10.2737321 134.24389,10.2737321 L134.24389,10.2737321 Z M171.956388,10.2737321 L171.956388,14.8498049 L163.585833,14.8498049 C161.470693,14.8498049 160.525631,15.836801 160.525631,17.9005202 L160.525631,17.9005202 L160.525631,33.9616385 L155.755315,33.9616385 L155.755315,17.1827048 C155.755315,12.4271782 157.510431,10.2737321 162.190741,10.2737321 L162.190741,10.2737321 L171.956388,10.2737321 Z M196.438009,10.2737321 L196.438009,14.8498049 L183.297139,14.8498049 C181.091993,14.8498049 180.191933,15.7470741 180.191933,17.5416125 C180.191933,19.2015605 180.911981,20.0988296 183.567157,20.0988296 L183.567157,20.0988296 L189.147526,20.0988296 C195.717961,20.0988296 197.383072,23.1046814 197.383072,26.783485 C197.383072,31.0006502 195.177926,33.9616385 189.597556,33.9616385 L189.597556,33.9616385 L175.781641,33.9616385 L175.781641,29.3407022 L189.597556,29.3407022 C191.802702,29.3407022 192.702762,28.5780234 192.702762,26.7386216 C192.702762,24.8543563 191.712696,24.0916775 189.327538,24.0916775 L189.327538,24.0916775 L183.702166,24.0916775 C177.131731,24.0916775 175.511623,20.816645 175.511623,17.1827048 C175.511623,12.9206762 177.716769,10.2737321 183.252136,10.2737321 L183.252136,10.2737321 L196.438009,10.2737321 Z M218.48947,10.2737321 C224.114842,10.2737321 226.5,12.9655397 226.5,17.5416125 C226.5,21.893368 224.294854,24.3608583 218.444467,24.3608583 L218.444467,24.3608583 L207.148718,24.3608583 L207.148718,26.0656697 C207.148718,27.949935 208.183787,29.3407022 210.79396,29.3407022 L210.79396,29.3407022 L225.329923,29.3407022 L225.329923,33.9616385 L210.79396,33.9616385 C204.853566,33.9616385 202.513411,30.6417425 202.513411,26.1553966 L202.513411,26.1553966 L202.513411,18.079974 C202.513411,13.5936281 204.853566,10.2737321 210.79396,10.2737321 L210.79396,10.2737321 Z M22.4599873,10.2733301 L11.6309765,21.0686209 C10.9155567,21.7818227 10.877903,22.9148288 11.5180155,23.6722205 L11.6309765,23.7948382 L21.8289873,33.9613301 L15.3649873,33.9613301 L8.39906348,27.0167314 C5.92091558,24.5462664 5.86047295,20.5782891 8.21773559,18.0347747 L8.39906348,17.8467277 L15.9959873,10.2733301 L22.4599873,10.2733301 Z M60.9689803,10.2733301 L50.1399695,21.0686209 C49.4245497,21.7818227 49.3868961,22.9148288 50.0270085,23.6722205 L50.1399695,23.7948382 L60.3379803,33.9613301 L53.8739803,33.9613301 L46.9080565,27.0167314 C44.4299086,24.5462664 44.369466,20.5782891 46.7267286,18.0347747 L46.9080565,17.8467277 L54.5049803,10.2733301 L60.9689803,10.2733301 Z M79.5202662,14.8498049 L75.424995,14.8498049 C71.2847208,14.8498049 69.4846016,17.003251 69.4846016,22.1176853 C69.4846016,27.2321196 71.2847208,29.3407022 75.424995,29.3407022 L75.424995,29.3407022 L79.5202662,29.3407022 C83.6155375,29.3407022 85.4606596,27.2321196 85.4606596,22.1176853 C85.4606596,17.003251 83.6155375,14.8498049 79.5202662,14.8498049 L79.5202662,14.8498049 Z M141.894397,14.8498049 L134.24389,14.8498049 C131.633717,14.8498049 130.598649,16.2854356 130.598649,18.1248375 L130.598649,18.1248375 L130.598649,20.6371912 L141.759388,20.6371912 C144.324558,20.6371912 145.269621,19.5604681 145.269621,17.8107932 C145.269621,16.0162549 144.234552,14.8498049 141.894397,14.8498049 L141.894397,14.8498049 Z M218.444467,14.8498049 L210.79396,14.8498049 C208.183787,14.8498049 207.148718,16.2854356 207.148718,18.1248375 L207.148718,18.1248375 L207.148718,20.6371912 L218.309458,20.6371912 C220.874627,20.6371912 221.81969,19.5604681 221.81969,17.8107932 C221.81969,16.0162549 220.784621,14.8498049 218.444467,14.8498049 L218.444467,14.8498049 Z M31.9071131,1.34590377 L31.9071131,6.86410923 L27.0917942,6.86410923 L27.0917942,1.34590377 L31.9071131,1.34590377 Z" id="形状结合"></path>
                </g>
            </g>
        </g>
    </g>
</svg>