<?xml version="1.0" encoding="UTF-8"?>
<svg width="32px" height="32px" viewBox="0 0 32 32" version="1.1" xmlns="http://www.w3.org/2000/svg" xmlns:xlink="http://www.w3.org/1999/xlink">
    <title>编组 24</title>
    <g id="页面-4" stroke="none" stroke-width="1" fill="none" fill-rule="evenodd">
        <g id="画板备份-24" transform="translate(-943.000000, -3975.000000)">
            <g id="编组-24" transform="translate(943.000000, 3975.000000)">
                <circle id="椭圆形备份-52" fill="#D1D2DE" opacity="0.200000003" cx="16" cy="16" r="16"></circle>
                <g id="Group-31-Copy" transform="translate(8.000000, 10.000000)" fill="#FFFFFF">
                    <path d="M5.56564244,2.49491755 L5.56564244,12.8360422 C5.56564244,12.9829749 5.52679792,13.1078677 5.44910889,13.2107206 C5.37141985,13.3135735 5.25799386,13.365 5.10883091,13.365 C5.00317382,13.365 4.9006243,13.3414908 4.80118233,13.2944723 L0.466134215,11.2403529 C0.335616636,11.1815798 0.225298203,11.0831349 0.135178916,10.9450181 C0.0450596276,10.8069014 0,10.670254 0,10.5350759 L0,0.484877962 C0,0.367331792 0.0310756154,0.267417546 0.0932268462,0.185135224 C0.155378077,0.102852902 0.245497354,0.0617117414 0.363584677,0.0617117414 C0.450596396,0.0617117414 0.587329096,0.105791554 0.773782778,0.193951179 L5.53767438,2.45083773 C5.55631975,2.46846966 5.56564244,2.48316294 5.56564244,2.49491755 L5.56564244,2.49491755 Z M16.70625,3.54401716 L16.70625,12.8360422 C16.70625,12.9829749 16.6627441,13.1019904 16.5757324,13.1930887 C16.4887207,13.284187 16.3706334,13.3297362 16.2214704,13.3297362 C16.0723075,13.3297362 15.9262521,13.2915336 15.7833043,13.2151286 L11.6720006,11.2756168 L16.70625,3.54401716 Z M6.16229423,3.38532981 L11.1406076,11.0199538 L6.16229423,8.67490765 L6.16229423,3.38532981 Z M11.3550293,0 C11.442041,0 11.5228376,0.0176319239 11.5974191,0.0528957718 L16.6409912,2.43320581 C16.6658517,2.44496043 16.6782819,2.46259235 16.6782819,2.48610158 C16.6782819,2.50373351 15.8811925,3.73649901 14.2870135,6.18439809 C12.6928345,8.63229717 11.7590123,10.0648912 11.4855469,10.4821801 L7.84970005,4.8928595 L10.8702497,0.246846966 C10.9759068,0.0822823219 11.1375,0 11.3550293,0 Z" id="medium备份"></path>
                </g>
            </g>
        </g>
    </g>
</svg>