<?xml version="1.0" encoding="UTF-8"?>
<svg width="33px" height="32px" viewBox="0 0 33 32" version="1.1" xmlns="http://www.w3.org/2000/svg" xmlns:xlink="http://www.w3.org/1999/xlink">
    <title>编组 25</title>
    <g id="页面-4" stroke="none" stroke-width="1" fill="none" fill-rule="evenodd">
        <g id="画板备份-24" transform="translate(-845.000000, -3975.000000)">
            <g id="编组-25" transform="translate(845.500000, 3975.000000)">
                <circle id="椭圆形备份-53" fill="#D1D2DE" opacity="0.200000003" cx="16" cy="16" r="16"></circle>
                <g id="编组-15备份" transform="translate(6.000000, 9.000000)" fill="#FFFFFF" fill-rule="nonzero">
                    <path d="M15.7082019,13.9550811 L18.5099922,1.35208136 C18.7576037,0.242859107 18.0903945,-0.193613473 17.3280441,0.0787454048 L0.861274096,6.13465673 C-0.263345294,6.55250648 -0.24382912,7.15309271 0.670991444,7.42545159 L4.88282526,8.68016471 L14.6604274,2.80582598 C15.1178376,2.51484427 15.5374353,2.67895794 15.1946825,2.96993964 L7.28575394,9.78938695 L6.98081375,13.9364583 C7.41870787,13.9364583 7.61021029,13.7548857 7.83830555,13.5360675 L9.89604192,11.6446864 L14.1652046,14.6452898 C14.9470711,15.0631395 15.4996227,14.8454852 15.7094216,13.9539173 L15.7082019,13.9550811 Z" id="telegramm-copy"></path>
                </g>
            </g>
        </g>
    </g>
</svg>