<?xml version="1.0" encoding="UTF-8"?>
<svg width="33px" height="32px" viewBox="0 0 33 32" version="1.1" xmlns="http://www.w3.org/2000/svg" xmlns:xlink="http://www.w3.org/1999/xlink">
    <title>编组 26</title>
    <g id="页面-4" stroke="none" stroke-width="1" fill="none" fill-rule="evenodd">
        <g id="画板备份-24" transform="translate(-751.000000, -3975.000000)">
            <g id="编组-26" transform="translate(751.500000, 3975.000000)">
                <circle id="椭圆形备份-54" fill="#D1D2DE" opacity="0.200000003" cx="16" cy="16" r="16"></circle>
                <g id="编组-17备份" transform="translate(7.000000, 9.000000)" fill="#FFFFFF" fill-rule="nonzero">
                    <path d="M16.672986,4.18363389 C16.672986,9.13733709 12.84228,14.85 5.837832,14.85 C3.686958,14.85 1.685178,14.2296177 0,13.1654369 C0.298188,13.199935 0.601128,13.2180612 0.908226,13.2180612 C2.692602,13.2180612 4.334418,12.6187286 5.638248,11.6130193 C3.971484,11.5831988 2.565486,10.4991377 2.080782,9.00986928 C2.31363,9.05372288 2.551824,9.07711147 2.797146,9.07711147 C3.144636,9.07711147 3.48084,9.03091901 3.800412,8.94555066 C2.05821,8.60115368 0.74547,7.08615781 0.74547,5.26944915 C0.74547,5.25366185 0.74547,5.23787455 0.746064,5.22208725 C1.25928,5.50275032 1.846746,5.67173288 2.47104,5.69102847 C1.44936,5.01860653 0.776952,3.87139623 0.776952,2.57040595 C0.776952,1.88336615 0.964656,1.23959523 1.292544,0.685870378 C3.170772,2.95397882 5.976828,4.44617081 9.142254,4.60287436 C9.077508,4.32864315 9.04365,4.04213293 9.04365,3.74860613 C9.04365,1.67813128 10.749024,0 12.851784,0 C13.94712,0 14.936724,0.455492775 15.631704,1.18404733 C16.498944,1.0162342 17.313912,0.703996535 18.049878,0.274231208 C17.765352,1.14954916 17.161848,1.88453558 16.375392,2.34821436 C17.14581,2.25758357 17.879994,2.05585699 18.5625,1.75823719 C18.052254,2.51018034 17.406576,3.17032327 16.662294,3.69890538 C16.668828,3.85970193 16.672986,4.02166791 16.672986,4.18363389 Z" id="twitter-copy"></path>
                </g>
            </g>
        </g>
    </g>
</svg>